<svg xmlns="http://www.w3.org/2000/svg" width="70" height="56" viewBox="0 0 70 56"><rect width="100%" height="100%" fill="#DDDDDD"/><path fill="#999999" d="M13.51 23.3H20v.7q0 .31-.07.5-.06.19-.13.32l-3.56 7.33q-.11.23-.31.39t-.54.16h-1.16l3.63-7.18q.12-.22.24-.41.12-.18.27-.35h-4.49q-.15 0-.26-.11-.11-.11-.11-.26V23.3ZM27.66 28q0 1.23-.27 2.14-.26.9-.73 1.49-.46.6-1.09.88-.64.29-1.37.29-.74 0-1.36-.29-.63-.28-1.09-.88-.46-.59-.72-1.49-.26-.91-.26-2.14t.26-2.14q.26-.9.72-1.49.46-.59 1.09-.88.62-.29 1.36-.29.73 0 1.37.29.63.29 1.09.88.47.59.73 1.49.27.91.27 2.14ZM26 28q0-1.02-.15-1.69-.15-.67-.4-1.07-.25-.39-.58-.55-.32-.16-.67-.16-.35 0-.67.16-.32.16-.57.55-.24.4-.39 1.07-.15.67-.15 1.69t.15 1.69q.15.67.39 1.07.25.39.57.55.32.16.67.16.35 0 .67-.16.33-.16.58-.55.25-.4.4-1.07.15-.67.15-1.69Zm11.98 2.55-.85.84-2.21-2.21-2.22 2.22-.85-.84 2.22-2.23-2.12-2.12.85-.84 2.12 2.12 2.1-2.11.86.85-2.11 2.11 2.21 2.21Zm6.83-5.79-.33 1.95q.31-.06.6-.09.28-.03.55-.03.74 0 1.31.22.56.22.94.61.39.39.58.92.2.52.2 1.12 0 .75-.27 1.37-.26.62-.73 1.05-.46.44-1.11.68-.64.24-1.39.24-.44 0-.84-.09-.39-.09-.74-.24t-.65-.35q-.29-.2-.53-.42l.5-.68q.15-.22.41-.22.16 0 .33.1l.39.23q.21.12.51.22.3.11.71.11.44 0 .78-.14.34-.15.56-.4.23-.26.34-.62.12-.35.12-.77 0-.76-.45-1.19-.44-.44-1.32-.44-.67 0-1.37.25l-1-.29.78-4.56h4.64v.68q0 .35-.21.56-.22.22-.73.22h-2.58Zm10.75-1.46-2.79 3.41-.32.41q.27-.14.59-.21.31-.08.67-.08.54 0 1.04.18.51.17.89.53.38.35.62.88.23.52.23 1.22 0 .66-.24 1.24-.24.57-.68 1-.43.43-1.05.68-.61.24-1.35.24-.76 0-1.35-.24-.6-.24-1.02-.67-.43-.43-.65-1.04-.22-.61-.22-1.35 0-.66.26-1.36.27-.7.84-1.45l2.24-3.01q.12-.16.34-.27.23-.11.52-.11h1.43Zm-2.42 8.19q.38 0 .7-.13.32-.13.55-.36.23-.24.36-.55.13-.32.13-.69 0-.4-.12-.72-.12-.32-.35-.55-.23-.22-.55-.34-.31-.12-.7-.12-.38 0-.69.13-.32.13-.54.36-.22.23-.34.55-.12.31-.12.68 0 .39.1.71.11.32.32.55.21.23.52.35.32.13.73.13Z"/></svg>