<svg xmlns="http://www.w3.org/2000/svg" width="270" height="348" viewBox="0 0 270 348"><rect width="100%" height="100%" fill="#DDDDDD"/><path fill="#999999" d="M64.17 182.875h6.68q.72 0 1.14.4.43.41.43 1.08v2.66H54.56v-1.48q0-.45.19-.94.19-.5.6-.89l7.9-7.92q.99-1.01 1.78-1.93.78-.92 1.3-1.82t.8-1.82q.28-.93.28-1.96 0-.93-.27-1.64-.27-.71-.76-1.2-.5-.49-1.19-.73t-1.56-.24q-.79 0-1.47.22-.67.23-1.19.63-.52.41-.88.95t-.54 1.19q-.31.82-.8 1.09-.48.27-1.4.13l-2.34-.41q.27-1.88 1.04-3.29.78-1.41 1.94-2.36 1.16-.94 2.66-1.42 1.51-.48 3.23-.48 1.8 0 3.3.53 1.49.54 2.55 1.51 1.07.97 1.66 2.34.59 1.37.59 3.04 0 1.44-.42 2.66-.42 1.23-1.13 2.34-.71 1.12-1.67 2.16-.95 1.05-2 2.13l-5.86 5.99q.84-.25 1.68-.39.84-.13 1.59-.13Zm11.58-21.89h17.98v1.93q0 .86-.18 1.39-.18.53-.36.89l-9.87 20.31q-.3.63-.86 1.07-.56.44-1.49.44h-3.23l10.07-19.89q.34-.61.67-1.13.33-.51.75-.98H76.77q-.41 0-.72-.3-.3-.31-.3-.72v-3.01Zm39.18 13.02q0 3.4-.73 5.91-.73 2.51-2.01 4.15-1.29 1.64-3.04 2.44-1.76.8-3.79.8-2.04 0-3.77-.8-1.74-.8-3.02-2.44t-2-4.15q-.72-2.51-.72-5.91 0-3.42.72-5.93.72-2.5 2-4.14 1.28-1.63 3.02-2.44 1.73-.8 3.77-.8 2.03 0 3.79.8 1.75.81 3.04 2.44 1.28 1.64 2.01 4.14.73 2.51.73 5.93Zm-4.59 0q0-2.83-.41-4.68-.42-1.86-1.11-2.96-.69-1.09-1.59-1.54-.9-.44-1.87-.44-.96 0-1.85.44-.89.45-1.57 1.54-.69 1.1-1.09 2.96-.41 1.85-.41 4.68 0 2.82.41 4.68.4 1.85 1.09 2.95.68 1.1 1.57 1.54.89.44 1.85.44.97 0 1.87-.44.9-.44 1.59-1.54.69-1.1 1.11-2.95.41-1.86.41-4.68Zm33.18 7.05-2.36 2.32-6.1-6.1-6.16 6.14-2.36-2.32 6.16-6.18-5.87-5.86 2.34-2.34 5.87 5.86 5.83-5.83 2.38 2.34-5.85 5.85 6.12 6.12Zm14.97-12.4-2.34-.41q.27-1.88 1.05-3.29.77-1.41 1.93-2.36 1.16-.94 2.67-1.42 1.5-.48 3.23-.48 1.8 0 3.25.52 1.44.51 2.47 1.42 1.03.91 1.58 2.13.54 1.23.54 2.65 0 1.24-.27 2.18-.28.95-.81 1.65-.52.7-1.29 1.19-.78.49-1.75.81 2.34.74 3.49 2.25 1.16 1.51 1.16 3.8 0 1.94-.72 3.44-.72 1.49-1.95 2.51-1.22 1.01-2.83 1.54-1.61.52-3.41.52-1.97 0-3.42-.45-1.46-.45-2.54-1.33-1.08-.89-1.84-2.16-.75-1.28-1.29-2.96l1.96-.81q.77-.32 1.45-.17.67.16.98.73.32.63.71 1.24.39.62.93 1.09.54.48 1.27.78.72.29 1.73.29 1.14 0 1.98-.37.85-.36 1.42-.96.56-.59.84-1.32.28-.73.28-1.47 0-.93-.2-1.7-.2-.76-.83-1.3-.63-.54-1.8-.85-1.18-.31-3.16-.31v-3.16q1.63-.02 2.71-.31t1.72-.8q.64-.51.89-1.23.26-.72.26-1.59 0-1.83-1.03-2.79-1.03-.95-2.74-.95-.79 0-1.45.22-.67.23-1.2.63-.53.41-.89.95t-.54 1.19q-.31.82-.8 1.09-.5.27-1.4.13Zm21.49 8.55h7.92v-8.51q0-1.21.17-2.67l-8.09 11.18Zm11.79 0h3.28v2.57q0 .36-.23.62-.24.27-.67.27h-2.38v6.35h-3.87v-6.35h-10.98q-.45 0-.79-.28t-.43-.7l-.47-2.25 12.33-16.47h4.21v16.24Zm14.64 6.62q1.1 0 1.92-.31.83-.32 1.4-.87.57-.56.85-1.34.29-.77.29-1.67 0-2.14-1.19-3.24-1.18-1.1-3.27-1.1t-3.28 1.1q-1.19 1.1-1.19 3.24 0 .9.29 1.67.29.78.86 1.34.56.55 1.39.87.83.31 1.93.31Zm0-19.78q-.99 0-1.71.31-.72.3-1.2.82-.48.51-.7 1.18-.23.66-.23 1.4 0 .77.19 1.5t.64 1.3q.45.57 1.19.91.74.34 1.82.34t1.82-.34q.73-.34 1.18-.91.45-.57.64-1.3.19-.73.19-1.5 0-.74-.23-1.4-.24-.67-.7-1.18-.47-.52-1.19-.82-.72-.31-1.71-.31Zm4.39 9.4q2.38.77 3.51 2.36 1.13 1.6 1.13 3.9 0 1.73-.65 3.13-.66 1.41-1.85 2.4t-2.85 1.53q-1.67.54-3.68.54-2.02 0-3.68-.54-1.67-.54-2.86-1.53-1.18-.99-1.84-2.4-.66-1.4-.66-3.13 0-2.3 1.14-3.9 1.13-1.59 3.51-2.36-1.89-.79-2.84-2.25-.94-1.46-.94-3.51 0-1.48.6-2.76.6-1.27 1.68-2.22 1.08-.94 2.59-1.48 1.5-.53 3.3-.53 1.8 0 3.3.53 1.5.54 2.58 1.48 1.08.95 1.69 2.22.6 1.28.6 2.76 0 2.05-.94 3.51-.95 1.46-2.84 2.25Z"/></svg>